HIERARCHY
ROOT Hips
{
    OFFSET 0.000000 0.000000 0.000000
    CHANNELS 6 Xposition Yposition Zposition Zrotation Xrotation Yrotation
    JOINT Spine
    {
        OFFSET -0.000000 7.236184 0.000000
        CHANNELS 3 Zrotation Xrotation Yrotation
        JOINT Spine1
        {
            OFFSET -0.000000 20.420147 0.000000
            CHANNELS 3 Zrotation Xrotation Yrotation
            JOINT Neck
            {
                OFFSET -0.000000 20.336288 1.848754
                CHANNELS 3 Zrotation Xrotation Yrotation
                JOINT Head
                {
                    OFFSET -0.000000 12.354461 -1.764923
                    CHANNELS 3 Zrotation Xrotation Yrotation
                    End Site
                    {
                        OFFSET -0.000000 22.061537 0.000000
                    }
                }
            }
            JOINT LeftShoulder
            {
                OFFSET 3.573296 18.396038 -0.314103
                CHANNELS 3 Zrotation Xrotation Yrotation
                JOINT LeftArm
                {
                    OFFSET 10.880760 0.000000 0.000000
                    CHANNELS 3 Zrotation Xrotation Yrotation
                    JOINT LeftForeArm
                    {
                        OFFSET 27.185530 0.000000 0.000000
                        CHANNELS 3 Zrotation Xrotation Yrotation
                        JOINT LeftHand
                        {
                            OFFSET 27.825975 0.000000 0.000000
                            CHANNELS 3 Zrotation Xrotation Yrotation
                            End Site
                            {
                                OFFSET 13.236923 0.000000 0.000000
                            }
                        }
                    }
                }
            }
            JOINT RightShoulder
            {
                OFFSET -3.474926 18.396038 -0.314103
                CHANNELS 3 Zrotation Xrotation Yrotation
                JOINT RightArm
                {
                    OFFSET -10.880760 0.000000 0.000000
                    CHANNELS 3 Zrotation Xrotation Yrotation
                    JOINT RightForeArm
                    {
                        OFFSET -27.185530 0.000000 0.000000
                        CHANNELS 3 Zrotation Xrotation Yrotation
                        JOINT RightHand
                        {
                            OFFSET -27.825975 0.000000 0.000000
                            CHANNELS 3 Zrotation Xrotation Yrotation
                            End Site
                            {
                                OFFSET -13.236923 0.000000 0.000000
                            }
                        }
                    }
                }
            }
        }
    }
    JOINT LeftUpLeg
    {
        OFFSET 8.824615 0.000000 0.000000
        CHANNELS 3 Zrotation Xrotation Yrotation
        JOINT LeftLeg
        {
            OFFSET -0.000000 -35.111282 0.000000
            CHANNELS 3 Zrotation Xrotation Yrotation
            JOINT LeftFoot
            {
                OFFSET -0.000000 -42.324711 0.000000
                CHANNELS 3 Zrotation Xrotation Yrotation
                JOINT LeftToeBase
                {
                    OFFSET -0.000000 -5.735999 13.236923
                    CHANNELS 3 Zrotation Xrotation Yrotation
                    End Site
                    {
                        OFFSET -0.000000 0.000000 3.529846
                    }
                }
            }
        }
    }
    JOINT RightUpLeg
    {
        OFFSET -8.824615 0.000000 0.000000
        CHANNELS 3 Zrotation Xrotation Yrotation
        JOINT RightLeg
        {
            OFFSET -0.000000 -35.111282 0.000000
            CHANNELS 3 Zrotation Xrotation Yrotation
            JOINT RightFoot
            {
                OFFSET -0.000000 -42.324711 0.000000
                CHANNELS 3 Zrotation Xrotation Yrotation
                JOINT RightToeBase
                {
                    OFFSET -0.000000 -5.735999 13.236923
                    CHANNELS 3 Zrotation Xrotation Yrotation
                    End Site
                    {
                        OFFSET -0.000000 0.000000 3.529846
                    }
                }
            }
        }
    }
}
MOTION
Frames:    4
Frame Time:    0.008333
-4.757594    81.722237    99.247955    -1.662828    -8.105914    -176.357239    -3.241819    -13.049684    0.011440    0.981741    7.608828    0.317027    1.905637    6.456978    -2.671794    5.377362    -6.634262    -1.881935    1.244062    17.577938    -3.991318    -47.492065    44.718609    -37.365364    0.177884    -2.512212    -16.554335    16.616520    -2.193369    2.007951    5.285193    18.903576    -3.244244    43.467033    42.612534    35.194393    -2.207740    -8.002938    16.297787    -15.899926    -7.174891    -3.716509    3.367022    -8.289072    -4.416794    -1.437663    10.241367    -0.577510    -4.689428    -8.311892    -8.719783    0.133782    -0.933148    -0.148545    -7.451284    -3.222437    0.861869    3.069066    3.968203    3.867981    0.669791    -5.869446    -11.775643    -2.363431    -0.209191    2.556909    
-4.759974    81.719795    99.222908    -1.662596    -8.115617    -176.370026    -3.236501    -13.048735    0.016027    0.969750    7.615877    0.321686    1.916793    6.432160    -2.682676    5.397471    -6.683336    -1.888464    1.248124    17.577337    -3.970438    -47.543270    44.752262    -37.313759    0.159941    -2.624419    -16.562593    16.647823    -2.313848    1.965283    5.276810    18.902222    -3.241836    43.475315    42.671837    35.155788    -2.236869    -8.058815    16.365267    -15.973511    -7.223000    -3.716460    3.369274    -8.272682    -4.419578    -1.441437    10.232297    -0.574608    -4.686320    -8.329206    -8.708735    0.131879    -0.925247    -0.146430    -7.451284    -3.215579    0.867596    3.068769    3.966628    3.878481    0.705357    -5.883768    -11.777193    -2.366791    -0.217050    2.560571    
-4.762280    81.717339    99.197807    -1.662335    -8.125327    -176.382813    -3.231003    -13.048279    0.020450    0.957372    7.623851    0.326415    1.927747    6.406747    -2.693405    5.418339    -6.732120    -1.894645    1.251979    17.576370    -3.948872    -47.595070    44.786461    -37.262005    0.142928    -2.732732    -16.569778    16.688318    -2.429800    1.925522    5.268466    18.900743    -3.238879    43.484516    42.731907    35.115681    -2.265323    -8.114192    16.432898    -16.047379    -7.270524    -3.717303    3.371506    -8.256700    -4.421941    -1.445055    10.223998    -0.572525    -4.682854    -8.346839    -8.697318    0.129950    -0.917230    -0.144286    -7.451151    -3.208693    0.873556    3.068498    3.964948    3.888535    0.740647    -5.898077    -11.778528    -2.370598    -0.224489    2.564716    
-4.764420    81.714897    99.173096    -1.662098    -8.135012    -176.395218    -3.225223    -13.049018    0.024711    0.944238    7.633656    0.330782    1.938861    6.380072    -2.703429    5.439048    -6.778905    -1.900262    1.255661    17.574518    -3.926189    -47.647190    44.821007    -37.211052    0.127848    -2.832442    -16.574718    16.742027    -2.535802    1.891386    5.260452    18.898809    -3.234753    43.495148    42.792419    35.073586    -2.291822    -8.167727    16.499418    -16.120335    -7.316287    -3.719785    3.373410    -8.241970    -4.423651    -1.447973    10.217441    -0.571835    -4.679090    -8.364843    -8.685577    0.127822    -0.908461    -0.141921    -7.450914    -3.202110    0.879825    3.068173    3.963542    3.898100    0.775359    -5.912438    -11.780012    -2.375096    -0.230626    2.569603    
